<svg xmlns="http://www.w3.org/2000/svg" fill="none" height="332" width="480"><path d="M126.613 93.984c62.622-61.312 164.152-61.312 226.775 0l7.536 7.379c3.131 3.066 3.131 8.036 0 11.102l-25.781 25.242a4.07 4.07 0 0 1-5.67 0l-10.371-10.154c-43.687-42.773-114.517-42.773-158.204 0l-11.107 10.874a4.07 4.07 0 0 1-5.669 0l-25.781-25.242c-3.132-3.066-3.132-8.036 0-11.102zm280.093 52.204l22.946 22.465c3.131 3.066 3.131 8.036 0 11.102L326.189 281.056c-3.131 3.065-8.208 3.065-11.339 0l-73.432-71.896c-.783-.767-2.052-.767-2.835 0l-73.43 71.896c-3.131 3.065-8.208 3.065-11.339 0L50.348 179.754c-3.131-3.066-3.131-8.036 0-11.102l22.946-22.466c3.131-3.065 8.208-3.065 11.339 0l73.433 71.897c.782.767 2.051.767 2.834 0l73.429-71.897c3.131-3.065 8.208-3.065 11.339 0l73.433 71.897c.783.767 2.052.767 2.835 0l73.431-71.895c3.132-3.066 8.208-3.066 11.339 0z" fill="#fff"/></svg>